<?xml version="1.0" encoding="UTF-8" standalone="no"?>
<!-- Created with Inkscape (http://www.inkscape.org/) -->

<svg
   xmlns:dc="http://purl.org/dc/elements/1.1/"
   xmlns:cc="http://creativecommons.org/ns#"
   xmlns:rdf="http://www.w3.org/1999/02/22-rdf-syntax-ns#"
   xmlns:svg="http://www.w3.org/2000/svg"
   xmlns="http://www.w3.org/2000/svg"
   xmlns:sodipodi="http://sodipodi.sourceforge.net/DTD/sodipodi-0.dtd"
   xmlns:inkscape="http://www.inkscape.org/namespaces/inkscape"
   width="1024"
   height="1024"
   viewBox="0 0 270.93332 270.93334"
   version="1.1"
   id="svg8"
   inkscape:version="0.92.5 (2060ec1f9f, 2020-04-08)"
   sodipodi:docname="icon.svg"
   inkscape:export-filename="/home/davidagtz/Documents/Projects/Charcoal/icon.png"
   inkscape:export-xdpi="96"
   inkscape:export-ydpi="96">
  <defs
     id="defs2">
    <inkscape:path-effect
       effect="skeletal"
       id="path-effect4660"
       is_visible="true"
       pattern="m -147.2068,16.775802 c 13.58577,0.0517 37.03975,17.007017 37.03975,17.007017 0,0 -19.02289,18.14095 -36.66178,18.14095 -17.63888,-5e-6 -38.17368,-18.140948 -38.17368,-18.140948 0,0 23.98054,-17.059595 37.79571,-17.007019 z"
       copytype="single_stretched"
       prop_scale="1"
       scale_y_rel="false"
       spacing="0"
       normal_offset="0"
       tang_offset="0"
       prop_units="false"
       vertical_pattern="false"
       fuse_tolerance="0" />
    <inkscape:path-effect
       effect="spiro"
       id="path-effect4652"
       is_visible="true" />
    <inkscape:path-effect
       effect="skeletal"
       id="path-effect4648"
       is_visible="true"
       pattern="m -147.2068,16.775802 c 13.58577,0.0517 37.03975,17.007017 37.03975,17.007017 0,0 -19.02289,18.14095 -36.66178,18.14095 -17.63888,-5e-6 -38.17368,-18.140948 -38.17368,-18.140948 0,0 23.98054,-17.059595 37.79571,-17.007019 z"
       copytype="single_stretched"
       prop_scale="1"
       scale_y_rel="false"
       spacing="0"
       normal_offset="0"
       tang_offset="0"
       prop_units="false"
       vertical_pattern="false"
       fuse_tolerance="0" />
    <inkscape:path-effect
       effect="spiro"
       id="path-effect4640"
       is_visible="true" />
    <inkscape:path-effect
       effect="skeletal"
       id="path-effect4602"
       is_visible="true"
       pattern="m -150.62351,10.169472 c 13.58577,0.0517 37.03975,17.007016 37.03975,17.007016 0,0 -19.02289,18.14095 -36.66178,18.14095 -17.63888,-5e-6 -38.17368,-18.140948 -38.17368,-18.140948 0,0 23.98054,-17.059595 37.79571,-17.007018 z"
       copytype="single_stretched"
       prop_scale="1"
       scale_y_rel="false"
       spacing="0"
       normal_offset="0"
       tang_offset="0"
       prop_units="false"
       vertical_pattern="false"
       fuse_tolerance="0" />
    <inkscape:path-effect
       effect="spiro"
       id="path-effect4594"
       is_visible="true" />
    <inkscape:path-effect
       effect="bspline"
       id="path-effect4556"
       is_visible="true"
       weight="33.333333"
       steps="2"
       helper_size="0"
       apply_no_weight="true"
       apply_with_weight="true"
       only_selected="false" />
    <inkscape:path-effect
       effect="spiro"
       id="path-effect4594-7"
       is_visible="true" />
    <inkscape:path-effect
       effect="skeletal"
       id="path-effect4602-5"
       is_visible="true"
       pattern="m -150.62351,10.169472 c 13.58577,0.0517 37.03975,17.007016 37.03975,17.007016 0,0 -19.02289,18.14095 -36.66178,18.14095 -17.63888,-5e-6 -38.17368,-18.140948 -38.17368,-18.140948 0,0 23.98054,-17.059595 37.79571,-17.007018 z"
       copytype="single_stretched"
       prop_scale="1"
       scale_y_rel="false"
       spacing="0"
       normal_offset="0"
       tang_offset="0"
       prop_units="false"
       vertical_pattern="false"
       fuse_tolerance="0" />
  </defs>
  <sodipodi:namedview
     id="base"
     pagecolor="#ffffff"
     bordercolor="#666666"
     borderopacity="1.0"
     inkscape:pageopacity="0.0"
     inkscape:pageshadow="2"
     inkscape:zoom="0.49497475"
     inkscape:cx="-137.57349"
     inkscape:cy="234.5067"
     inkscape:document-units="px"
     inkscape:current-layer="layer6"
     showgrid="false"
     units="px"
     inkscape:window-width="1920"
     inkscape:window-height="1022"
     inkscape:window-x="0"
     inkscape:window-y="29"
     inkscape:window-maximized="1" />
  <metadata
     id="metadata5">
    <rdf:RDF>
      <cc:Work
         rdf:about="">
        <dc:format>image/svg+xml</dc:format>
        <dc:type
           rdf:resource="http://purl.org/dc/dcmitype/StillImage" />
        <dc:title></dc:title>
      </cc:Work>
    </rdf:RDF>
  </metadata>
  <g
     inkscape:groupmode="layer"
     id="layer4"
     inkscape:label="Background"
     style="display:inline"
     transform="translate(0,135.46666)" />
  <g
     inkscape:groupmode="layer"
     id="layer5"
     inkscape:label="c"
     style="display:inline"
     transform="translate(0,135.46666)" />
  <g
     inkscape:groupmode="layer"
     id="layer6"
     inkscape:label="FLAME"
     transform="translate(0,135.46666)">
    <path
       style="display:inline;fill:#000000;stroke:none;stroke-width:0.26458332"
       d="m -147.2068,16.775802 c 13.58577,0.0517 37.03975,17.007017 37.03975,17.007017 0,0 -19.02289,18.14095 -36.66178,18.14095 -17.63888,-5e-6 -38.17368,-18.140948 -38.17368,-18.140948 0,0 23.98054,-17.059595 37.79571,-17.007019 z"
       id="rect4570"
       inkscape:connector-curvature="0"
       sodipodi:nodetypes="aczca" />
    <g
       id="g931"
       transform="matrix(2.0000001,0,0,2.0000001,0,-135.46668)">
      <circle
         r="67.73333"
         cy="67.733337"
         cx="67.73333"
         id="path4561"
         style="display:inline;fill:#000000;stroke:none;stroke-width:0.26458332" />
      <g
         transform="matrix(0.78125003,0,0,0.78125003,14.816667,14.816614)"
         id="g922">
        <circle
           style="display:inline;fill:none;stroke:none;stroke-width:0.26458332"
           id="path102"
           cx="67.73333"
           cy="67.733337"
           r="67.73333" />
        <g
           id="g100">
          <path
             transform="scale(0.26458333)"
             inkscape:connector-curvature="0"
             id="path4564"
             d="M 265.77734,0.1875 A 255.99999,255.99999 0 0 0 189.74219,8.7226562 255.99999,255.99999 0 0 0 0,256 255.99999,255.99999 0 0 0 189.74219,503.27734 255.99999,255.99999 0 0 0 477.70312,384 L 403.0918,340.92383 A 170.00001,170.00001 0 0 1 256,426 170.00001,170.00001 0 0 1 86,256 170.00001,170.00001 0 0 1 256,86 170.00001,170.00001 0 0 1 403.04102,171.10547 L 477.70312,128 A 255.99999,255.99999 0 0 0 265.77734,0.1875 Z"
             style="display:inline;fill:#808080;stroke:none;stroke-width:0.99999994" />
          <g
             transform="matrix(0.9946922,0,0,0.9946922,3.2839826,4.0791812)"
             id="g4665">
            <path
               style="fill:#aa4400;stroke:none;stroke-width:0.26458332px;stroke-linecap:butt;stroke-linejoin:miter;stroke-opacity:1"
               d="m -85.871557,86.713104 c -2.866195,4.730409 -9.404282,10.986115 -18.256273,15.146326 -10.22621,4.34957 -19.59377,2.62064 -25.52683,-0.16998 -5.8946,-2.772519 -8.17481,-6.044844 -8.17481,-6.044844 0,0 3.88655,-1.021743 8.0574,-3.94195 4.33038,-3.031901 7.96232,-7.5348 8.97142,-11.921152 -10e-6,-10e-7 0,-2e-6 0,-2e-6 1.15805,-2.938358 1.74209,-6.848551 4.71581,-11.437341 0.58142,-0.897188 1.25476,-1.819575 2.02247,-2.760018 4.15958,-6.314171 12.25104,-13.097474 21.83828,-16.425543 9.109371,-2.820334 16.640409,-0.547336 20.9158,1.811663 4.377732,2.415466 5.95119,4.86403 5.95119,4.86403 0,0 -2.846674,0.646303 -6.189565,2.745844 -3.43504,2.157416 -6.732471,5.573665 -7.985039,9.529907 -1.854876,4.321237 -1.907399,10.356784 -4.889461,15.758439 -0.414126,0.97638 -0.895963,1.929584 -1.450392,2.844621 z"
               id="path4638"
               inkscape:connector-curvature="0"
               inkscape:path-effect="#path-effect4640;#path-effect4648"
               inkscape:original-d="m -65.213764,55.285809 c -6.859653,1.157901 -13.719571,2.31607 -20.579754,3.474503 -6.860183,1.158433 -17.639522,21.559477 -26.459682,32.339613 -8.82016,10.780135 -16.92681,2.672429 -25.3906,4.009043"
               transform="rotate(-21.000086,-4.9914908,-415.64128)" />
            <path
               style="fill:#d45500;stroke:none;stroke-width:0.26458332px;stroke-linecap:butt;stroke-linejoin:miter;stroke-opacity:1"
               d="m -97.163009,73.120216 c -2.158748,-3.113472 -6.419641,-9.313802 -9.887111,-15.673728 -4.19207,-7.145711 -7.50476,-16.257516 -8.06077,-25.898721 -0.30775,-8.476724 2.1667,-15.680583 5.42052,-20.952441 0,0 1e-5,-4e-6 1e-5,-4e-6 3.24733,-5.2481003 7.16396,-8.4410046 9.893454,-10.22694089 2.77964,-1.81874641 4.535404,-2.43093061 4.535404,-2.43093061 0,0 -0.827708,1.69795498 -1.653388,4.6688108 -0.829709,2.9853497 -1.534046,7.135552 -0.998371,11.6758097 0,10e-7 0,4e-6 0,4e-6 0.501516,4.307414 2.078094,8.706728 4.678694,12.204403 2.669111,3.993367 6.640534,6.886851 11.408406,11.663948 3.91709,3.626492 8.526701,8.002402 12.851931,14.022213 0.709038,0.986832 1.412405,2.021051 2.104499,3.102928 5.649915,8.234707 8.781827,19.624956 7.377867,31.739193 -0.879057,6.267658 -3.534306,12.107531 -7.418557,16.89814 -4.24796,5.23819 -9.980573,8.40184 -15.709482,9.61976 0,0 -7e-6,0 -7e-6,0 -8.197131,1.60908 -14.881007,-1.33636 -18.81461,-4.79426 -4.21457,-3.75169 -5.47769,-8.13396 -5.8209,-10.616992 -0.36683,-2.653924 0.009,-4.022035 0.009,-4.022035 0,0 0.73968,1.231142 2.48159,2.714291 1.71418,1.459532 4.51304,3.09203 7.663615,3.16291 2.93112,0.09949 6.222996,-1.185446 7.661388,-3.360076 -10e-7,-1e-6 10e-7,-2e-6 10e-7,-2e-6 1.125105,-1.473191 1.64625,-3.552229 1.64837,-5.302387 0.04724,-1.713115 -0.50998,-3.609015 -1.146481,-5.274863 -1.021727,-3.631565 -4.649313,-7.255167 -7.235867,-11.493758 -0.230317,-0.333253 -0.758838,-1.092019 -0.989155,-1.425272 z"
               id="path4650"
               inkscape:connector-curvature="0"
               inkscape:path-effect="#path-effect4652;#path-effect4660"
               inkscape:original-d="m -107.79299,94.250033 c 8.018349,-5.79111 13.714381,16.538477 21.732203,10.747907 8.017822,-5.790576 3.02932,-26.727217 4.543581,-40.090429 1.514263,-13.363212 -15.323187,-23.876344 -22.985184,-35.814116 -7.66198,-11.937775 6.41474,-20.4909289 9.62171,-30.735996"
               transform="matrix(1.0232392,0.21278839,-0.17424062,0.8378739,170.43206,35.212844)"
               sodipodi:nodetypes="csscc" />
            <path
               style="display:inline;fill:#ff6600;stroke:none;stroke-width:0.26458332px;stroke-linecap:butt;stroke-linejoin:miter;stroke-opacity:1"
               d="m -137.69855,75.117923 c 1.06683,2.55032 1.70129,5.140082 2.05942,7.660608 0.97674,4.799853 0.46336,9.226503 1.07714,12.834889 0.37702,4.3972 3.07194,8.75354 6.24939,11.79778 3.08984,2.9603 6.01295,4.24355 6.01295,4.24355 0,0 -2.23991,2.28473 -7.52383,3.75314 -5.14228,1.42904 -13.8291,1.85788 -22.64823,-3.87481 -6.60637,-4.54236 -11.73991,-10.77343 -14.63992,-16.517292 -1.29327,-2.246485 -2.27727,-4.335231 -2.99919,-6.188984 -0.97702,-2.508831 -1.4871,-4.60806 -1.99476,-6.361896 0,0 0,-2e-6 0,-2e-6 -0.86188,-3.914414 -2.21219,-8.41216 -4.94508,-12.87817 -2.57826,-4.235335 -5.99312,-7.568386 -9.1928,-9.986205 -3.08876,-2.334003 -5.43412,-3.507122 -5.43412,-3.507122 0,0 2.06404,-1.524543 6.13235,-2.97879 4.08757,-1.461127 10.21922,-2.724741 17.61634,-1.568723 8.70537,1.374532 17.51988,5.842862 23.92678,13.398869 2.97165,3.663646 5.06646,7.215786 6.30356,10.173158 z"
               id="path4592"
               inkscape:connector-curvature="0"
               inkscape:path-effect="#path-effect4594;#path-effect4602"
               inkscape:original-d="m -191.63393,56.65863 c 9.26069,-0.189254 24.37973,17.197653 33.63988,17.008928 9.26016,-0.188722 9.82765,19.780491 14.74108,29.671132 4.91342,9.89064 13.98538,5.92136 20.97767,8.88244"
               sodipodi:nodetypes="cssc"
               transform="rotate(7.1774948,-16.823484,1694.9691)" />
          </g>
        </g>
      </g>
    </g>
  </g>
</svg>
